<mxfile host="app.diagrams.net" modified="2021-06-30T02:27:09.012Z" agent="5.0 (X11; Linux x86_64) AppleWebKit/537.36 (KHTML, like Gecko) Chrome/91.0.4472.114 Safari/537.36" etag="TvVtdSySv31sNHrT5M4A" version="14.8.2" type="github">
  <diagram id="dFQ83MWQbFeCM8F21P78" name="Page-1">
    <mxGraphModel dx="569" dy="310" grid="1" gridSize="10" guides="1" tooltips="1" connect="1" arrows="1" fold="1" page="1" pageScale="1" pageWidth="850" pageHeight="1100" math="0" shadow="0">
      <root>
        <mxCell id="0" />
        <mxCell id="1" parent="0" />
        <mxCell id="xou5hH0iGpgoQNsRLM-i-1" value="tree_thoughts" style="shape=datastore;whiteSpace=wrap;html=1;" vertex="1" parent="1">
          <mxGeometry x="383" y="50" width="85" height="90" as="geometry" />
        </mxCell>
        <mxCell id="xou5hH0iGpgoQNsRLM-i-2" value="Users" style="shape=table;startSize=30;container=1;collapsible=1;childLayout=tableLayout;fixedRows=1;rowLines=0;fontStyle=1;align=center;resizeLast=1;" vertex="1" parent="1">
          <mxGeometry x="55" y="250" width="310" height="240" as="geometry" />
        </mxCell>
        <mxCell id="xou5hH0iGpgoQNsRLM-i-3" value="" style="shape=partialRectangle;collapsible=0;dropTarget=0;pointerEvents=0;fillColor=none;top=0;left=0;bottom=1;right=0;points=[[0,0.5],[1,0.5]];portConstraint=eastwest;" vertex="1" parent="xou5hH0iGpgoQNsRLM-i-2">
          <mxGeometry y="30" width="310" height="30" as="geometry" />
        </mxCell>
        <mxCell id="xou5hH0iGpgoQNsRLM-i-4" value="PK" style="shape=partialRectangle;connectable=0;fillColor=none;top=0;left=0;bottom=0;right=0;fontStyle=1;overflow=hidden;" vertex="1" parent="xou5hH0iGpgoQNsRLM-i-3">
          <mxGeometry width="30" height="30" as="geometry" />
        </mxCell>
        <mxCell id="xou5hH0iGpgoQNsRLM-i-5" value="id (int - auto increment - unsigned)" style="shape=partialRectangle;connectable=0;fillColor=none;top=0;left=0;bottom=0;right=0;align=left;spacingLeft=6;fontStyle=1;overflow=hidden;" vertex="1" parent="xou5hH0iGpgoQNsRLM-i-3">
          <mxGeometry x="30" width="280" height="30" as="geometry" />
        </mxCell>
        <mxCell id="xou5hH0iGpgoQNsRLM-i-6" value="" style="shape=partialRectangle;collapsible=0;dropTarget=0;pointerEvents=0;fillColor=none;top=0;left=0;bottom=0;right=0;points=[[0,0.5],[1,0.5]];portConstraint=eastwest;" vertex="1" parent="xou5hH0iGpgoQNsRLM-i-2">
          <mxGeometry y="60" width="310" height="30" as="geometry" />
        </mxCell>
        <mxCell id="xou5hH0iGpgoQNsRLM-i-7" value="" style="shape=partialRectangle;connectable=0;fillColor=none;top=0;left=0;bottom=0;right=0;editable=1;overflow=hidden;" vertex="1" parent="xou5hH0iGpgoQNsRLM-i-6">
          <mxGeometry width="30" height="30" as="geometry" />
        </mxCell>
        <mxCell id="xou5hH0iGpgoQNsRLM-i-8" value="" style="shape=partialRectangle;connectable=0;fillColor=none;top=0;left=0;bottom=0;right=0;align=left;spacingLeft=6;overflow=hidden;" vertex="1" parent="xou5hH0iGpgoQNsRLM-i-6">
          <mxGeometry x="30" width="280" height="30" as="geometry" />
        </mxCell>
        <mxCell id="xou5hH0iGpgoQNsRLM-i-9" value="" style="shape=partialRectangle;collapsible=0;dropTarget=0;pointerEvents=0;fillColor=none;top=0;left=0;bottom=0;right=0;points=[[0,0.5],[1,0.5]];portConstraint=eastwest;" vertex="1" parent="xou5hH0iGpgoQNsRLM-i-2">
          <mxGeometry y="90" width="310" height="30" as="geometry" />
        </mxCell>
        <mxCell id="xou5hH0iGpgoQNsRLM-i-10" value="" style="shape=partialRectangle;connectable=0;fillColor=none;top=0;left=0;bottom=0;right=0;editable=1;overflow=hidden;" vertex="1" parent="xou5hH0iGpgoQNsRLM-i-9">
          <mxGeometry width="30" height="30" as="geometry" />
        </mxCell>
        <mxCell id="xou5hH0iGpgoQNsRLM-i-11" value="" style="shape=partialRectangle;connectable=0;fillColor=none;top=0;left=0;bottom=0;right=0;align=left;spacingLeft=6;overflow=hidden;" vertex="1" parent="xou5hH0iGpgoQNsRLM-i-9">
          <mxGeometry x="30" width="280" height="30" as="geometry" />
        </mxCell>
        <mxCell id="xou5hH0iGpgoQNsRLM-i-12" value="" style="shape=partialRectangle;collapsible=0;dropTarget=0;pointerEvents=0;fillColor=none;top=0;left=0;bottom=0;right=0;points=[[0,0.5],[1,0.5]];portConstraint=eastwest;" vertex="1" parent="xou5hH0iGpgoQNsRLM-i-2">
          <mxGeometry y="120" width="310" height="30" as="geometry" />
        </mxCell>
        <mxCell id="xou5hH0iGpgoQNsRLM-i-13" value="" style="shape=partialRectangle;connectable=0;fillColor=none;top=0;left=0;bottom=0;right=0;editable=1;overflow=hidden;" vertex="1" parent="xou5hH0iGpgoQNsRLM-i-12">
          <mxGeometry width="30" height="30" as="geometry" />
        </mxCell>
        <mxCell id="xou5hH0iGpgoQNsRLM-i-14" value="" style="shape=partialRectangle;connectable=0;fillColor=none;top=0;left=0;bottom=0;right=0;align=left;spacingLeft=6;overflow=hidden;" vertex="1" parent="xou5hH0iGpgoQNsRLM-i-12">
          <mxGeometry x="30" width="280" height="30" as="geometry" />
        </mxCell>
        <mxCell id="xou5hH0iGpgoQNsRLM-i-15" value="" style="shape=partialRectangle;collapsible=0;dropTarget=0;pointerEvents=0;fillColor=none;top=0;left=0;bottom=1;right=0;points=[[0,0.5],[1,0.5]];portConstraint=eastwest;" vertex="1" parent="1">
          <mxGeometry x="55" y="310" width="310" height="30" as="geometry" />
        </mxCell>
        <mxCell id="xou5hH0iGpgoQNsRLM-i-16" value="" style="shape=partialRectangle;connectable=0;fillColor=none;top=0;left=0;bottom=0;right=0;fontStyle=1;overflow=hidden;" vertex="1" parent="xou5hH0iGpgoQNsRLM-i-15">
          <mxGeometry width="51.66666666666667" height="30" as="geometry" />
        </mxCell>
        <mxCell id="xou5hH0iGpgoQNsRLM-i-17" value="name (varchar(255) - not null)" style="shape=partialRectangle;connectable=0;fillColor=none;top=0;left=0;bottom=0;right=0;align=left;spacingLeft=6;fontStyle=1;overflow=hidden;" vertex="1" parent="xou5hH0iGpgoQNsRLM-i-15">
          <mxGeometry x="35.769230769230774" width="274.2307692307692" height="30" as="geometry" />
        </mxCell>
        <mxCell id="xou5hH0iGpgoQNsRLM-i-18" value="" style="shape=partialRectangle;collapsible=0;dropTarget=0;pointerEvents=0;fillColor=none;top=0;left=0;bottom=1;right=0;points=[[0,0.5],[1,0.5]];portConstraint=eastwest;" vertex="1" parent="1">
          <mxGeometry x="55" y="340" width="310" height="30" as="geometry" />
        </mxCell>
        <mxCell id="xou5hH0iGpgoQNsRLM-i-19" value="" style="shape=partialRectangle;connectable=0;fillColor=none;top=0;left=0;bottom=0;right=0;fontStyle=1;overflow=hidden;" vertex="1" parent="xou5hH0iGpgoQNsRLM-i-18">
          <mxGeometry width="51.66666666666667" height="30" as="geometry" />
        </mxCell>
        <mxCell id="xou5hH0iGpgoQNsRLM-i-20" value="email (varchar(255) - not null - unique)" style="shape=partialRectangle;connectable=0;fillColor=none;top=0;left=0;bottom=0;right=0;align=left;spacingLeft=6;fontStyle=1;overflow=hidden;" vertex="1" parent="xou5hH0iGpgoQNsRLM-i-18">
          <mxGeometry x="35.769230769230774" width="274.2307692307692" height="30" as="geometry" />
        </mxCell>
        <mxCell id="xou5hH0iGpgoQNsRLM-i-24" value="" style="shape=partialRectangle;collapsible=0;dropTarget=0;pointerEvents=0;fillColor=none;top=0;left=0;bottom=1;right=0;points=[[0,0.5],[1,0.5]];portConstraint=eastwest;" vertex="1" parent="1">
          <mxGeometry x="55" y="370" width="310" height="30" as="geometry" />
        </mxCell>
        <mxCell id="xou5hH0iGpgoQNsRLM-i-25" value="" style="shape=partialRectangle;connectable=0;fillColor=none;top=0;left=0;bottom=0;right=0;fontStyle=1;overflow=hidden;" vertex="1" parent="xou5hH0iGpgoQNsRLM-i-24">
          <mxGeometry width="51.66666666666667" height="30" as="geometry" />
        </mxCell>
        <mxCell id="xou5hH0iGpgoQNsRLM-i-26" value="password (char(60) - not null)" style="shape=partialRectangle;connectable=0;fillColor=none;top=0;left=0;bottom=0;right=0;align=left;spacingLeft=6;fontStyle=1;overflow=hidden;" vertex="1" parent="xou5hH0iGpgoQNsRLM-i-24">
          <mxGeometry x="35.769230769230774" width="274.2307692307692" height="30" as="geometry" />
        </mxCell>
        <mxCell id="xou5hH0iGpgoQNsRLM-i-27" value="" style="shape=partialRectangle;collapsible=0;dropTarget=0;pointerEvents=0;fillColor=none;top=0;left=0;bottom=1;right=0;points=[[0,0.5],[1,0.5]];portConstraint=eastwest;" vertex="1" parent="1">
          <mxGeometry x="55" y="400" width="310" height="30" as="geometry" />
        </mxCell>
        <mxCell id="xou5hH0iGpgoQNsRLM-i-28" value="" style="shape=partialRectangle;connectable=0;fillColor=none;top=0;left=0;bottom=0;right=0;fontStyle=1;overflow=hidden;" vertex="1" parent="xou5hH0iGpgoQNsRLM-i-27">
          <mxGeometry width="51.66666666666667" height="30" as="geometry" />
        </mxCell>
        <mxCell id="xou5hH0iGpgoQNsRLM-i-29" value="profile_image (varchar(255) - default(&#39;&#39;))" style="shape=partialRectangle;connectable=0;fillColor=none;top=0;left=0;bottom=0;right=0;align=left;spacingLeft=6;fontStyle=1;overflow=hidden;" vertex="1" parent="xou5hH0iGpgoQNsRLM-i-27">
          <mxGeometry x="35.769230769230774" width="274.2307692307692" height="30" as="geometry" />
        </mxCell>
        <mxCell id="xou5hH0iGpgoQNsRLM-i-30" value="Thoughts" style="shape=table;startSize=30;container=1;collapsible=1;childLayout=tableLayout;fixedRows=1;rowLines=0;fontStyle=1;align=center;resizeLast=1;" vertex="1" parent="1">
          <mxGeometry x="485" y="290" width="310" height="230" as="geometry" />
        </mxCell>
        <mxCell id="xou5hH0iGpgoQNsRLM-i-31" value="" style="shape=partialRectangle;collapsible=0;dropTarget=0;pointerEvents=0;fillColor=none;top=0;left=0;bottom=1;right=0;points=[[0,0.5],[1,0.5]];portConstraint=eastwest;" vertex="1" parent="xou5hH0iGpgoQNsRLM-i-30">
          <mxGeometry y="30" width="310" height="30" as="geometry" />
        </mxCell>
        <mxCell id="xou5hH0iGpgoQNsRLM-i-32" value="PK" style="shape=partialRectangle;connectable=0;fillColor=none;top=0;left=0;bottom=0;right=0;fontStyle=1;overflow=hidden;" vertex="1" parent="xou5hH0iGpgoQNsRLM-i-31">
          <mxGeometry width="30" height="30" as="geometry" />
        </mxCell>
        <mxCell id="xou5hH0iGpgoQNsRLM-i-33" value="id (int - auto increment - unsigned)" style="shape=partialRectangle;connectable=0;fillColor=none;top=0;left=0;bottom=0;right=0;align=left;spacingLeft=6;fontStyle=1;overflow=hidden;" vertex="1" parent="xou5hH0iGpgoQNsRLM-i-31">
          <mxGeometry x="30" width="280" height="30" as="geometry" />
        </mxCell>
        <mxCell id="xou5hH0iGpgoQNsRLM-i-34" value="" style="shape=partialRectangle;collapsible=0;dropTarget=0;pointerEvents=0;fillColor=none;top=0;left=0;bottom=0;right=0;points=[[0,0.5],[1,0.5]];portConstraint=eastwest;" vertex="1" parent="xou5hH0iGpgoQNsRLM-i-30">
          <mxGeometry y="60" width="310" height="30" as="geometry" />
        </mxCell>
        <mxCell id="xou5hH0iGpgoQNsRLM-i-35" value="" style="shape=partialRectangle;connectable=0;fillColor=none;top=0;left=0;bottom=0;right=0;editable=1;overflow=hidden;" vertex="1" parent="xou5hH0iGpgoQNsRLM-i-34">
          <mxGeometry width="30" height="30" as="geometry" />
        </mxCell>
        <mxCell id="xou5hH0iGpgoQNsRLM-i-36" value="" style="shape=partialRectangle;connectable=0;fillColor=none;top=0;left=0;bottom=0;right=0;align=left;spacingLeft=6;overflow=hidden;" vertex="1" parent="xou5hH0iGpgoQNsRLM-i-34">
          <mxGeometry x="30" width="280" height="30" as="geometry" />
        </mxCell>
        <mxCell id="xou5hH0iGpgoQNsRLM-i-37" value="" style="shape=partialRectangle;collapsible=0;dropTarget=0;pointerEvents=0;fillColor=none;top=0;left=0;bottom=0;right=0;points=[[0,0.5],[1,0.5]];portConstraint=eastwest;" vertex="1" parent="xou5hH0iGpgoQNsRLM-i-30">
          <mxGeometry y="90" width="310" height="30" as="geometry" />
        </mxCell>
        <mxCell id="xou5hH0iGpgoQNsRLM-i-38" value="" style="shape=partialRectangle;connectable=0;fillColor=none;top=0;left=0;bottom=0;right=0;editable=1;overflow=hidden;" vertex="1" parent="xou5hH0iGpgoQNsRLM-i-37">
          <mxGeometry width="30" height="30" as="geometry" />
        </mxCell>
        <mxCell id="xou5hH0iGpgoQNsRLM-i-39" value="" style="shape=partialRectangle;connectable=0;fillColor=none;top=0;left=0;bottom=0;right=0;align=left;spacingLeft=6;overflow=hidden;" vertex="1" parent="xou5hH0iGpgoQNsRLM-i-37">
          <mxGeometry x="30" width="280" height="30" as="geometry" />
        </mxCell>
        <mxCell id="xou5hH0iGpgoQNsRLM-i-40" value="" style="shape=partialRectangle;collapsible=0;dropTarget=0;pointerEvents=0;fillColor=none;top=0;left=0;bottom=0;right=0;points=[[0,0.5],[1,0.5]];portConstraint=eastwest;" vertex="1" parent="xou5hH0iGpgoQNsRLM-i-30">
          <mxGeometry y="120" width="310" height="30" as="geometry" />
        </mxCell>
        <mxCell id="xou5hH0iGpgoQNsRLM-i-41" value="" style="shape=partialRectangle;connectable=0;fillColor=none;top=0;left=0;bottom=0;right=0;editable=1;overflow=hidden;" vertex="1" parent="xou5hH0iGpgoQNsRLM-i-40">
          <mxGeometry width="30" height="30" as="geometry" />
        </mxCell>
        <mxCell id="xou5hH0iGpgoQNsRLM-i-42" value="" style="shape=partialRectangle;connectable=0;fillColor=none;top=0;left=0;bottom=0;right=0;align=left;spacingLeft=6;overflow=hidden;" vertex="1" parent="xou5hH0iGpgoQNsRLM-i-40">
          <mxGeometry x="30" width="280" height="30" as="geometry" />
        </mxCell>
        <mxCell id="xou5hH0iGpgoQNsRLM-i-43" value="" style="shape=partialRectangle;collapsible=0;dropTarget=0;pointerEvents=0;fillColor=none;top=0;left=0;bottom=1;right=0;points=[[0,0.5],[1,0.5]];portConstraint=eastwest;" vertex="1" parent="1">
          <mxGeometry x="485" y="350" width="310" height="30" as="geometry" />
        </mxCell>
        <mxCell id="xou5hH0iGpgoQNsRLM-i-44" value="" style="shape=partialRectangle;connectable=0;fillColor=none;top=0;left=0;bottom=0;right=0;fontStyle=1;overflow=hidden;" vertex="1" parent="xou5hH0iGpgoQNsRLM-i-43">
          <mxGeometry width="51.66666666666667" height="30" as="geometry" />
        </mxCell>
        <mxCell id="xou5hH0iGpgoQNsRLM-i-45" value="description (varchar(255) - not null)" style="shape=partialRectangle;connectable=0;fillColor=none;top=0;left=0;bottom=0;right=0;align=left;spacingLeft=6;fontStyle=1;overflow=hidden;" vertex="1" parent="xou5hH0iGpgoQNsRLM-i-43">
          <mxGeometry x="35.769230769230774" width="274.2307692307693" height="30" as="geometry" />
        </mxCell>
        <mxCell id="xou5hH0iGpgoQNsRLM-i-46" value="" style="shape=partialRectangle;collapsible=0;dropTarget=0;pointerEvents=0;fillColor=none;top=0;left=0;bottom=1;right=0;points=[[0,0.5],[1,0.5]];portConstraint=eastwest;" vertex="1" parent="1">
          <mxGeometry x="485" y="410" width="310" height="30" as="geometry" />
        </mxCell>
        <mxCell id="xou5hH0iGpgoQNsRLM-i-47" value="" style="shape=partialRectangle;connectable=0;fillColor=none;top=0;left=0;bottom=0;right=0;fontStyle=1;overflow=hidden;" vertex="1" parent="xou5hH0iGpgoQNsRLM-i-46">
          <mxGeometry width="51.66666666666667" height="30" as="geometry" />
        </mxCell>
        <mxCell id="xou5hH0iGpgoQNsRLM-i-48" value="create_at (datetime - default(currentDate))" style="shape=partialRectangle;connectable=0;fillColor=none;top=0;left=0;bottom=0;right=0;align=left;spacingLeft=6;fontStyle=1;overflow=hidden;" vertex="1" parent="xou5hH0iGpgoQNsRLM-i-46">
          <mxGeometry x="35.769230769230774" width="274.2307692307693" height="30" as="geometry" />
        </mxCell>
        <mxCell id="xou5hH0iGpgoQNsRLM-i-49" value="" style="shape=partialRectangle;collapsible=0;dropTarget=0;pointerEvents=0;fillColor=none;top=0;left=0;bottom=1;right=0;points=[[0,0.5],[1,0.5]];portConstraint=eastwest;" vertex="1" parent="1">
          <mxGeometry x="485" y="380" width="310" height="30" as="geometry" />
        </mxCell>
        <mxCell id="xou5hH0iGpgoQNsRLM-i-50" value="" style="shape=partialRectangle;connectable=0;fillColor=none;top=0;left=0;bottom=0;right=0;fontStyle=1;overflow=hidden;" vertex="1" parent="xou5hH0iGpgoQNsRLM-i-49">
          <mxGeometry width="51.66666666666667" height="30" as="geometry" />
        </mxCell>
        <mxCell id="xou5hH0iGpgoQNsRLM-i-51" value="emotion (varchar(255) - default(&#39;undefined&#39;))" style="shape=partialRectangle;connectable=0;fillColor=none;top=0;left=0;bottom=0;right=0;align=left;spacingLeft=6;fontStyle=1;overflow=hidden;" vertex="1" parent="xou5hH0iGpgoQNsRLM-i-49">
          <mxGeometry x="35.769230769230774" width="274.2307692307693" height="30" as="geometry" />
        </mxCell>
        <mxCell id="xou5hH0iGpgoQNsRLM-i-55" value="" style="shape=partialRectangle;collapsible=0;dropTarget=0;pointerEvents=0;fillColor=none;top=0;left=0;bottom=1;right=0;points=[[0,0.5],[1,0.5]];portConstraint=eastwest;" vertex="1" parent="1">
          <mxGeometry x="55" y="430" width="310" height="30" as="geometry" />
        </mxCell>
        <mxCell id="xou5hH0iGpgoQNsRLM-i-56" value="" style="shape=partialRectangle;connectable=0;fillColor=none;top=0;left=0;bottom=0;right=0;fontStyle=1;overflow=hidden;" vertex="1" parent="xou5hH0iGpgoQNsRLM-i-55">
          <mxGeometry width="51.66666666666667" height="30" as="geometry" />
        </mxCell>
        <mxCell id="xou5hH0iGpgoQNsRLM-i-57" value="create_at (datetime - default(currentDate))" style="shape=partialRectangle;connectable=0;fillColor=none;top=0;left=0;bottom=0;right=0;align=left;spacingLeft=6;fontStyle=1;overflow=hidden;" vertex="1" parent="xou5hH0iGpgoQNsRLM-i-55">
          <mxGeometry x="35.769230769230774" width="274.2307692307693" height="30" as="geometry" />
        </mxCell>
        <mxCell id="xou5hH0iGpgoQNsRLM-i-58" value="" style="shape=partialRectangle;collapsible=0;dropTarget=0;pointerEvents=0;fillColor=none;top=0;left=0;bottom=1;right=0;points=[[0,0.5],[1,0.5]];portConstraint=eastwest;" vertex="1" parent="1">
          <mxGeometry x="55" y="460" width="310" height="30" as="geometry" />
        </mxCell>
        <mxCell id="xou5hH0iGpgoQNsRLM-i-59" value="" style="shape=partialRectangle;connectable=0;fillColor=none;top=0;left=0;bottom=0;right=0;fontStyle=1;overflow=hidden;" vertex="1" parent="xou5hH0iGpgoQNsRLM-i-58">
          <mxGeometry width="51.66666666666667" height="30" as="geometry" />
        </mxCell>
        <mxCell id="xou5hH0iGpgoQNsRLM-i-60" value="update_at (datetime - default(currentDate))" style="shape=partialRectangle;connectable=0;fillColor=none;top=0;left=0;bottom=0;right=0;align=left;spacingLeft=6;fontStyle=1;overflow=hidden;" vertex="1" parent="xou5hH0iGpgoQNsRLM-i-58">
          <mxGeometry x="35.769230769230774" width="274.2307692307693" height="30" as="geometry" />
        </mxCell>
        <mxCell id="xou5hH0iGpgoQNsRLM-i-61" value="" style="shape=partialRectangle;collapsible=0;dropTarget=0;pointerEvents=0;fillColor=none;top=0;left=0;bottom=1;right=0;points=[[0,0.5],[1,0.5]];portConstraint=eastwest;" vertex="1" parent="1">
          <mxGeometry x="485" y="440" width="310" height="30" as="geometry" />
        </mxCell>
        <mxCell id="xou5hH0iGpgoQNsRLM-i-62" value="" style="shape=partialRectangle;connectable=0;fillColor=none;top=0;left=0;bottom=0;right=0;fontStyle=1;overflow=hidden;" vertex="1" parent="xou5hH0iGpgoQNsRLM-i-61">
          <mxGeometry width="51.66666666666667" height="30" as="geometry" />
        </mxCell>
        <mxCell id="xou5hH0iGpgoQNsRLM-i-63" value="update_at (datetime - default(currentDate))" style="shape=partialRectangle;connectable=0;fillColor=none;top=0;left=0;bottom=0;right=0;align=left;spacingLeft=6;fontStyle=1;overflow=hidden;" vertex="1" parent="xou5hH0iGpgoQNsRLM-i-61">
          <mxGeometry x="35.769230769230774" width="274.2307692307693" height="30" as="geometry" />
        </mxCell>
        <mxCell id="xou5hH0iGpgoQNsRLM-i-64" value="" style="shape=partialRectangle;collapsible=0;dropTarget=0;pointerEvents=0;fillColor=none;top=0;left=0;bottom=1;right=0;points=[[0,0.5],[1,0.5]];portConstraint=eastwest;" vertex="1" parent="1">
          <mxGeometry x="485" y="470" width="310" height="30" as="geometry" />
        </mxCell>
        <mxCell id="xou5hH0iGpgoQNsRLM-i-65" value="FK" style="shape=partialRectangle;connectable=0;fillColor=none;top=0;left=0;bottom=0;right=0;fontStyle=1;overflow=hidden;" vertex="1" parent="xou5hH0iGpgoQNsRLM-i-64">
          <mxGeometry width="30" height="30" as="geometry" />
        </mxCell>
        <mxCell id="xou5hH0iGpgoQNsRLM-i-66" value="user_id (int - unsigned - not null)" style="shape=partialRectangle;connectable=0;fillColor=none;top=0;left=0;bottom=0;right=0;align=left;spacingLeft=6;fontStyle=1;overflow=hidden;" vertex="1" parent="xou5hH0iGpgoQNsRLM-i-64">
          <mxGeometry x="35.769230769230774" width="274.2307692307693" height="30" as="geometry" />
        </mxCell>
        <mxCell id="xou5hH0iGpgoQNsRLM-i-71" value="" style="edgeStyle=entityRelationEdgeStyle;fontSize=12;html=1;endArrow=ERoneToMany;startArrow=ERmandOne;exitX=1;exitY=0.5;exitDx=0;exitDy=0;entryX=0;entryY=0.5;entryDx=0;entryDy=0;" edge="1" parent="1" source="xou5hH0iGpgoQNsRLM-i-3" target="xou5hH0iGpgoQNsRLM-i-64">
          <mxGeometry width="100" height="100" relative="1" as="geometry">
            <mxPoint x="385" y="410" as="sourcePoint" />
            <mxPoint x="485" y="310" as="targetPoint" />
          </mxGeometry>
        </mxCell>
      </root>
    </mxGraphModel>
  </diagram>
</mxfile>
